<mxfile host="Electron" modified="2023-12-18T10:31:54.616Z" agent="Mozilla/5.0 (X11; Linux x86_64) AppleWebKit/537.36 (KHTML, like Gecko) draw.io/22.1.2 Chrome/114.0.5735.289 Electron/25.9.4 Safari/537.36" etag="23iKtjV76S8ykzUAlydx" version="22.1.2" type="device">
  <diagram name="Page-1" id="IooTlzXcHhJ_6TUlidn9">
    <mxGraphModel dx="1114" dy="1027" grid="1" gridSize="10" guides="1" tooltips="1" connect="1" arrows="1" fold="1" page="1" pageScale="1" pageWidth="850" pageHeight="1100" math="0" shadow="0">
      <root>
        <mxCell id="0" />
        <mxCell id="1" parent="0" />
        <mxCell id="XKkDL5AFqbUZDsZnsLSn-1" value="&lt;font style=&quot;font-size: 18px;&quot;&gt;frontend&lt;/font&gt;" style="rounded=0;whiteSpace=wrap;html=1;" vertex="1" parent="1">
          <mxGeometry x="100" y="440" width="120" height="60" as="geometry" />
        </mxCell>
        <mxCell id="XKkDL5AFqbUZDsZnsLSn-2" value="&lt;font style=&quot;font-size: 18px;&quot;&gt;db&lt;/font&gt;" style="rounded=0;whiteSpace=wrap;html=1;" vertex="1" parent="1">
          <mxGeometry x="710" y="440" width="120" height="60" as="geometry" />
        </mxCell>
        <mxCell id="XKkDL5AFqbUZDsZnsLSn-4" value="&lt;font style=&quot;font-size: 18px;&quot;&gt;r1&lt;/font&gt;" style="rounded=0;whiteSpace=wrap;html=1;" vertex="1" parent="1">
          <mxGeometry x="295" y="440" width="120" height="60" as="geometry" />
        </mxCell>
        <mxCell id="XKkDL5AFqbUZDsZnsLSn-7" value="&lt;font style=&quot;font-size: 18px;&quot;&gt;r2&lt;/font&gt;" style="rounded=0;whiteSpace=wrap;html=1;" vertex="1" parent="1">
          <mxGeometry x="500" y="440" width="120" height="60" as="geometry" />
        </mxCell>
        <mxCell id="XKkDL5AFqbUZDsZnsLSn-8" value="" style="endArrow=classic;html=1;rounded=0;strokeWidth=3;exitX=1;exitY=0.5;exitDx=0;exitDy=0;entryX=0;entryY=0.5;entryDx=0;entryDy=0;" edge="1" parent="1" source="XKkDL5AFqbUZDsZnsLSn-1" target="XKkDL5AFqbUZDsZnsLSn-4">
          <mxGeometry width="50" height="50" relative="1" as="geometry">
            <mxPoint x="400" y="540" as="sourcePoint" />
            <mxPoint x="270" y="490" as="targetPoint" />
          </mxGeometry>
        </mxCell>
        <mxCell id="XKkDL5AFqbUZDsZnsLSn-9" value="" style="endArrow=classic;html=1;rounded=0;strokeWidth=3;exitX=1;exitY=0.5;exitDx=0;exitDy=0;entryX=0;entryY=0.5;entryDx=0;entryDy=0;" edge="1" parent="1" source="XKkDL5AFqbUZDsZnsLSn-4" target="XKkDL5AFqbUZDsZnsLSn-7">
          <mxGeometry width="50" height="50" relative="1" as="geometry">
            <mxPoint x="230" y="480" as="sourcePoint" />
            <mxPoint x="305" y="480" as="targetPoint" />
          </mxGeometry>
        </mxCell>
        <mxCell id="XKkDL5AFqbUZDsZnsLSn-10" value="" style="endArrow=classic;html=1;rounded=0;strokeWidth=3;exitX=1;exitY=0.5;exitDx=0;exitDy=0;entryX=0;entryY=0.5;entryDx=0;entryDy=0;" edge="1" parent="1" source="XKkDL5AFqbUZDsZnsLSn-7" target="XKkDL5AFqbUZDsZnsLSn-2">
          <mxGeometry width="50" height="50" relative="1" as="geometry">
            <mxPoint x="425" y="480" as="sourcePoint" />
            <mxPoint x="510" y="480" as="targetPoint" />
          </mxGeometry>
        </mxCell>
        <mxCell id="XKkDL5AFqbUZDsZnsLSn-11" value="&lt;font style=&quot;font-size: 18px;&quot;&gt;checkout&lt;/font&gt;" style="rounded=0;whiteSpace=wrap;html=1;" vertex="1" parent="1">
          <mxGeometry x="295" y="550" width="120" height="60" as="geometry" />
        </mxCell>
        <mxCell id="XKkDL5AFqbUZDsZnsLSn-12" value="" style="endArrow=classic;html=1;rounded=0;strokeWidth=3;exitX=0.5;exitY=1;exitDx=0;exitDy=0;entryX=0;entryY=0.5;entryDx=0;entryDy=0;" edge="1" parent="1" source="XKkDL5AFqbUZDsZnsLSn-1" target="XKkDL5AFqbUZDsZnsLSn-11">
          <mxGeometry width="50" height="50" relative="1" as="geometry">
            <mxPoint x="230" y="480" as="sourcePoint" />
            <mxPoint x="305" y="480" as="targetPoint" />
            <Array as="points">
              <mxPoint x="160" y="580" />
            </Array>
          </mxGeometry>
        </mxCell>
      </root>
    </mxGraphModel>
  </diagram>
</mxfile>
